<?xml version="1.0" standalone="no"?>
<!DOCTYPE svg PUBLIC "-//W3C//DTD SVG 20010904//EN"
 "http://www.w3.org/TR/2001/REC-SVG-20010904/DTD/svg10.dtd">
<svg version="1.0" xmlns="http://www.w3.org/2000/svg"
 width="1018.000000pt" height="1456.000000pt" viewBox="0 0 1018.000000 1456.000000"
 preserveAspectRatio="xMidYMid meet">

<g transform="translate(0.000000,1456.000000) scale(0.100000,-0.100000)"
fill="#000000" stroke="none">
<path d="M2896 14331 c-3 -5 -13 -42 -22 -82 -20 -95 -12 -190 21 -240 39 -60
68 -175 61 -238 -10 -86 -36 -132 -94 -170 -44 -28 -110 -103 -148 -166 -9
-17 -17 -17 -73 -8 -53 8 -75 7 -135 -9 -45 -12 -95 -18 -136 -16 l-65 3 3
-119 3 -120 -37 -73 c-45 -87 -55 -167 -31 -226 9 -20 20 -37 25 -37 5 0 30
20 54 45 52 52 78 56 129 22 42 -28 48 -71 25 -171 -33 -141 -16 -237 61 -348
51 -75 59 -117 31 -160 -13 -20 -27 -26 -74 -31 -34 -3 -81 -18 -113 -35 -47
-23 -61 -37 -83 -82 -34 -65 -36 -119 -8 -210 25 -80 25 -144 2 -190 -31 -63
-105 -76 -150 -27 -17 19 -21 38 -24 123 l-3 102 -50 71 c-134 191 -135 196
-70 346 27 61 50 130 52 155 5 50 5 50 -54 -34 -18 -25 -74 -76 -126 -115 -51
-38 -98 -81 -105 -95 -22 -49 -14 -115 23 -201 46 -104 75 -218 75 -294 0
-126 -77 -251 -154 -251 -49 0 -70 12 -97 57 -12 21 -42 61 -66 90 -53 63 -89
140 -98 211 -4 31 -11 52 -18 49 -6 -2 -26 -31 -44 -64 -52 -94 -55 -167 -13
-314 46 -162 44 -214 -10 -354 -87 -224 -86 -309 5 -492 53 -106 53 -107 38
-143 -41 -95 -47 -138 -35 -244 14 -130 55 -228 140 -341 121 -162 283 -269
453 -302 72 -13 101 -14 198 -4 64 7 133 20 156 30 25 11 48 15 60 10 71 -28
158 12 271 123 l81 80 42 -12 c33 -9 54 -8 108 6 65 16 67 16 132 -7 102 -36
173 -32 304 15 l108 38 57 -24 c137 -60 256 -62 376 -8 37 17 72 30 77 28 12
-4 -43 -84 -232 -338 -268 -360 -366 -509 -493 -751 -116 -222 -178 -403 -192
-564 -4 -38 -11 -75 -16 -82 -5 -7 -7 -26 -3 -43 6 -27 -1 -40 -67 -123 -112
-139 -114 -142 -94 -172 9 -14 20 -25 25 -25 4 0 29 16 54 35 55 42 59 43 47
9 -17 -44 -13 -54 23 -54 18 0 42 7 53 15 10 8 34 15 51 15 28 0 38 7 64 48
26 39 30 42 24 18 -19 -90 -20 -86 12 -86 46 0 61 19 94 115 l30 90 -4 -103
c-3 -79 -1 -105 9 -109 21 -8 84 17 84 33 0 12 4 12 20 2 26 -17 71 0 87 32
10 19 13 21 13 7 0 -25 23 -31 64 -17 38 12 47 32 40 88 l-5 37 18 -45 c19
-46 36 -56 79 -46 32 8 31 18 -15 193 -29 114 -36 153 -28 171 7 15 7 30 -1
46 -8 19 -5 48 14 132 46 205 119 363 309 669 83 134 139 248 166 338 11 38
22 67 24 65 3 -2 23 -49 46 -103 45 -111 67 -151 116 -211 18 -23 33 -50 33
-61 0 -10 14 -41 31 -68 56 -89 61 -112 58 -310 l-3 -180 -48 -71 c-27 -39
-78 -105 -113 -145 -36 -41 -65 -81 -65 -90 0 -16 125 -180 155 -203 15 -12
25 -179 12 -192 -4 -4 -38 7 -76 26 -49 23 -76 31 -95 26 -32 -8 -88 -83 -162
-218 -140 -254 -119 -227 -228 -290 -216 -124 -507 -340 -1065 -786 -37 -30
-66 -41 -185 -70 -337 -81 -595 -134 -781 -163 -233 -36 -462 -79 -630 -119
-180 -43 -942 -283 -1020 -322 -53 -27 -125 -72 -125 -79 0 -8 141 -240 169
-276 13 -17 44 -46 70 -64 142 -101 278 -232 386 -373 l60 -79 -55 -49 c-30
-26 -83 -62 -118 -80 -34 -17 -62 -35 -62 -39 0 -18 80 -192 120 -263 59 -103
199 -276 273 -338 66 -55 198 -143 263 -175 82 -42 637 -153 762 -153 48 0 62
-3 62 -15 0 -8 -13 -63 -30 -122 -44 -158 -43 -164 35 -214 36 -22 65 -46 65
-52 0 -21 -42 -39 -102 -44 -51 -5 -66 -2 -124 27 -54 26 -94 61 -232 201
-174 177 -217 209 -312 234 -73 19 -105 19 -162 0 l-45 -16 13 -37 c20 -56 17
-79 -16 -137 l-31 -53 117 5 c89 5 139 2 217 -13 101 -18 103 -19 247 -114 80
-53 173 -111 207 -130 34 -19 61 -35 60 -36 -1 -2 -54 -7 -117 -13 -150 -13
-203 -34 -321 -128 -108 -87 -146 -108 -209 -117 -42 -6 -167 6 -201 19 -11 4
-13 -7 -11 -55 4 -56 0 -66 -44 -148 -47 -87 -69 -142 -56 -142 31 0 250 66
298 90 76 37 109 70 182 180 82 125 118 166 175 201 94 58 232 80 342 56 57
-13 60 -15 58 -42 -1 -15 2 -36 8 -46 12 -23 -15 -125 -86 -319 -30 -80 -84
-228 -120 -330 -88 -241 -197 -498 -295 -687 -84 -164 -125 -229 -176 -283
-28 -30 -37 -52 -59 -149 -14 -63 -36 -133 -49 -156 -30 -51 -190 -229 -247
-274 -22 -19 -92 -82 -154 -142 -62 -59 -127 -116 -143 -127 -39 -23 -196
-229 -212 -278 -8 -23 -10 -60 -6 -100 5 -50 2 -73 -14 -113 l-20 -51 31 -95
c20 -65 37 -100 52 -110 47 -30 151 -45 352 -51 220 -7 318 5 375 46 72 51
154 190 195 330 18 63 46 111 166 286 55 79 56 82 63 170 7 89 8 90 79 204 47
75 103 148 164 211 50 53 94 107 97 120 3 13 10 56 15 94 16 120 205 488 441
860 120 190 396 580 444 628 8 8 32 17 53 20 31 6 43 15 68 53 17 26 39 69 50
97 l20 49 225 99 c354 156 460 209 466 236 3 12 -10 99 -30 194 -20 94 -34
174 -31 179 2 4 35 10 72 14 105 10 200 39 293 91 210 117 313 167 377 185
132 36 466 49 513 20 14 -9 13 -24 -12 -130 -2 -12 11 -16 62 -21 112 -11 350
-8 485 5 72 8 132 12 134 10 8 -8 -21 -185 -55 -338 -19 -83 -34 -163 -34
-178 0 -36 63 -112 143 -172 63 -47 68 -54 106 -147 22 -54 43 -109 47 -124 8
-34 25 -41 109 -49 113 -11 125 -15 125 -40 0 -39 48 -190 65 -202 35 -25 151
-367 215 -629 47 -196 108 -506 111 -575 2 -23 -9 -57 -31 -100 -28 -55 -34
-77 -36 -140 -1 -41 -7 -104 -13 -138 -7 -35 -10 -76 -6 -91 4 -21 0 -32 -21
-50 l-27 -23 7 -112 c4 -65 12 -116 19 -123 16 -17 133 -38 372 -69 296 -37
368 -50 610 -109 256 -62 350 -78 460 -77 116 1 159 14 323 96 181 91 196 104
188 160 -28 209 -28 207 -51 216 -13 5 -24 20 -28 38 -4 20 -28 48 -71 87 -37
32 -66 66 -66 76 0 41 -53 77 -200 137 -80 32 -154 62 -164 66 -11 4 -41 1
-67 -5 l-46 -12 -154 76 c-171 85 -307 169 -387 242 -95 86 -127 178 -147 420
-14 171 -22 666 -11 684 4 5 20 12 36 16 17 4 36 16 44 27 13 18 16 19 42 4
64 -34 118 -87 222 -216 140 -173 231 -248 342 -285 68 -23 196 -23 295 -1 65
15 208 69 229 87 5 4 -13 38 -40 76 -64 88 -84 120 -84 132 0 6 48 -10 106
-34 59 -25 111 -45 117 -45 5 0 -9 20 -32 45 -40 44 -95 145 -105 195 l-5 25
-135 2 c-154 2 -234 19 -421 88 -188 68 -264 86 -403 93 -76 4 -127 11 -129
18 -2 6 43 65 100 130 58 66 107 129 111 140 5 15 -7 39 -44 89 -55 74 -56 78
-35 115 22 38 18 75 -14 138 l-28 57 26 90 27 90 60 12 c107 21 404 44 689 53
335 11 420 17 546 36 215 32 439 109 439 152 0 42 -265 398 -437 586 -35 38
-63 71 -63 75 0 4 51 36 113 73 241 142 316 167 532 175 l150 5 26 -43 c29
-49 59 -123 86 -214 l18 -60 80 -18 c119 -27 325 -94 406 -133 39 -19 136 -71
216 -115 79 -44 149 -79 154 -77 6 2 -27 51 -73 108 -47 58 -143 182 -215 277
-136 177 -282 356 -375 455 -106 114 -319 267 -639 459 -262 158 -371 211
-544 267 -151 49 -518 227 -810 394 -82 47 -339 192 -570 323 -261 148 -456
266 -515 310 l-95 73 -34 93 c-108 301 -148 386 -189 400 -6 2 -16 28 -22 58
-16 83 -28 96 -125 127 l-85 28 0 83 c0 82 3 90 28 75 38 -24 312 -280 394
-368 76 -81 136 -108 238 -109 72 0 79 2 156 48 l80 48 60 -28 c113 -53 256
-32 329 49 35 38 36 43 30 88 l-7 49 54 27 c154 77 167 113 127 354 -17 101
-18 132 -9 168 16 65 46 119 97 173 25 26 42 52 39 57 -3 6 -22 13 -41 16
l-35 7 0 59 c0 86 -56 222 -169 409 -44 72 -51 92 -51 135 0 59 16 126 31 126
5 0 23 -7 39 -15 28 -15 30 -14 30 4 0 11 -9 35 -19 53 -30 51 -81 186 -81
213 0 13 11 49 24 79 19 43 40 67 97 113 135 107 149 124 149 180 0 89 -43
155 -191 296 -86 82 -133 133 -140 156 -15 44 -29 23 -29 -45 0 -40 7 -62 36
-110 60 -98 74 -134 74 -199 0 -76 -24 -151 -94 -298 -31 -64 -56 -127 -56
-139 0 -13 9 -46 19 -73 41 -109 53 -357 22 -458 -16 -52 -61 -80 -119 -74
-53 6 -74 24 -110 96 -24 49 -27 70 -30 171 -5 134 7 189 49 232 16 17 29 39
29 49 0 30 -141 199 -166 199 -7 0 -17 -13 -23 -30 -9 -27 -14 -30 -50 -30
-50 0 -72 28 -79 101 -2 27 -8 49 -12 49 -13 0 -39 -35 -55 -73 -34 -82 -9
-189 73 -310 60 -88 65 -103 52 -175 -14 -83 -39 -118 -107 -149 -69 -32 -120
-25 -173 23 -28 25 -39 44 -43 75 -7 54 -12 57 -45 27 -15 -15 -68 -44 -119
-66 -50 -21 -110 -54 -132 -71 -37 -30 -41 -31 -41 -12 0 11 6 35 14 53 7 18
21 62 30 98 9 36 25 95 35 132 21 72 19 81 -31 150 -16 22 -16 29 8 138 32
149 30 224 -11 304 -33 66 -77 108 -144 139 -25 12 -48 22 -49 24 -2 1 6 15
18 31 20 27 21 34 10 66 -6 21 -30 57 -51 83 -38 43 -39 46 -23 64 13 15 14
22 5 33 -12 14 -41 108 -41 132 0 17 139 110 217 145 62 28 66 32 48 42 -23
14 -351 17 -400 4 -27 -7 -24 -2 31 50 67 64 84 88 104 148 7 22 16 42 20 45
3 3 19 28 35 57 l28 52 59 -46 c33 -25 61 -43 64 -41 2 3 -7 30 -20 60 -14 31
-28 72 -32 93 l-7 37 34 -8 c70 -18 234 -6 181 13 -20 7 -72 54 -72 64 0 5 10
9 22 9 20 0 18 4 -17 40 -29 29 -46 62 -70 132 -18 51 -35 100 -39 109 -6 13
2 17 46 22 55 5 213 61 223 78 4 5 -7 9 -24 9 -48 0 -131 21 -191 47 l-55 24
72 38 c126 67 132 80 32 73 l-71 -5 12 23 c8 15 18 20 31 17 10 -3 19 -1 19 4
0 5 -4 9 -10 9 -18 0 -11 20 30 87 22 36 46 91 55 122 8 31 19 69 25 85 5 16
8 31 6 33 -2 2 -25 -7 -52 -21 -62 -31 -204 -61 -214 -46 -5 7 -15 8 -33 1
-33 -13 -41 -2 -56 69 -14 66 -6 148 20 209 26 60 25 62 -22 46 -117 -42 -240
-137 -285 -221 -10 -19 -24 -34 -30 -34 -19 0 -102 60 -139 102 -38 41 -85
130 -85 160 0 46 -25 21 -68 -71 -26 -55 -50 -101 -53 -101 -4 0 -39 32 -78
71 -39 39 -71 66 -71 61 0 -6 7 -41 15 -78 9 -36 15 -68 13 -69 -2 -2 -28 9
-58 23 -31 16 -89 60 -134 104 -44 42 -81 76 -82 75 0 -1 -7 -49 -14 -107 -15
-121 -14 -173 4 -253 l13 -57 -59 33 c-33 17 -91 56 -129 85 -38 29 -69 46
-69 39 0 -52 101 -286 155 -357 l26 -35 -38 -17 c-54 -24 -152 -38 -260 -38
-51 0 -93 -3 -92 -7 0 -5 50 -53 109 -108 98 -90 107 -101 92 -114 -15 -12
-158 -82 -222 -108 -23 -10 -19 -13 72 -59 l97 -48 -22 -24 c-12 -13 -44 -35
-70 -48 -48 -25 -54 -43 -14 -45 17 -1 18 -2 5 -6 -10 -2 -18 -8 -18 -12 0 -5
51 -32 113 -61 l112 -53 -52 -20 c-29 -11 -53 -24 -53 -28 0 -5 18 -9 40 -9
l40 0 0 -45 0 -45 -50 1 c-59 3 -71 -6 -100 -74 -12 -29 -24 -53 -25 -55 -2
-2 -18 4 -35 13 -21 11 -44 15 -64 11 -38 -7 -91 -58 -106 -102 -10 -29 -15
-32 -72 -38 -89 -11 -138 -39 -196 -113 -28 -36 -39 -43 -68 -43 -20 0 -55 -5
-80 -11 -25 -6 -47 -10 -49 -8 -2 2 3 31 11 64 19 85 18 207 -5 288 -28 100
-58 139 -143 184 -96 50 -100 63 -62 179 25 78 29 106 30 220 2 152 19 246 43
242 9 -2 34 -30 56 -63 l40 -60 3 33 c8 79 -76 283 -170 417 -39 55 -86 133
-104 173 -19 39 -38 72 -44 72 -5 0 -12 -12 -16 -27 -28 -126 -38 -140 -98
-129 -32 6 -46 19 -101 94 -36 48 -82 121 -102 162 -31 63 -37 86 -41 155 -5
111 14 147 81 157 67 9 106 35 149 98 55 82 62 120 53 263 -5 67 -9 175 -10
240 -2 125 -9 146 -43 128 -35 -19 -39 -13 -46 66 -5 51 -19 106 -43 167 -25
63 -38 117 -44 175 -9 95 -6 109 27 122 46 17 22 98 -58 202 -36 48 -68 101
-80 138 -21 61 -23 65 -32 50z m2356 -1939 c29 -61 87 -127 156 -174 40 -28
52 -50 33 -62 -9 -6 -151 141 -151 156 0 4 -4 8 -10 8 -5 0 -7 -7 -4 -15 4
-10 0 -15 -11 -15 -15 0 -16 -7 -12 -47 5 -42 3 -40 -14 22 l-19 70 5 -95 c2
-52 11 -133 20 -180 25 -143 22 -165 -29 -214 -56 -53 -113 -127 -161 -210
-22 -36 -40 -64 -42 -62 -2 2 13 48 34 102 26 70 34 99 25 102 -9 3 -5 17 14
49 17 30 23 48 16 55 -14 14 -105 -98 -147 -181 -44 -89 -100 -252 -125 -365
l-20 -91 5 84 c10 155 105 453 175 551 l21 29 -37 16 c-20 8 -40 15 -44 15
-19 0 -131 137 -165 201 -40 76 -57 170 -37 205 10 18 11 18 18 -1 68 -189
128 -286 218 -352 70 -52 142 -90 152 -80 9 8 9 42 -1 142 -7 78 12 216 32
236 5 5 7 -91 5 -211 -2 -121 -1 -220 2 -220 3 0 17 21 32 46 l27 46 -17 111
c-23 159 -22 215 10 365 7 34 16 26 46 -36z m-224 -210 c54 -40 62 -50 62 -79
0 -22 -5 -33 -14 -33 -26 0 -135 70 -175 111 -21 23 -42 36 -45 31 -10 -16 90
-118 160 -164 35 -23 62 -44 59 -46 -5 -5 -122 64 -167 100 -43 34 -84 103
-123 208 -15 41 -33 82 -40 90 -7 8 -10 21 -8 28 3 7 50 -31 116 -94 62 -58
140 -126 175 -152z m609 140 c-48 -48 -106 -113 -129 -145 -24 -32 -44 -53
-46 -48 -6 18 60 131 107 183 41 46 139 113 150 102 3 -2 -34 -44 -82 -92z
m78 -35 c-79 -143 -99 -155 -24 -15 30 57 6 55 -44 -4 -25 -29 -57 -66 -72
-83 l-27 -30 18 30 c27 46 129 169 166 200 51 43 46 14 -17 -98z m-650 38 c49
-45 53 -62 5 -25 -33 26 -49 25 -44 -2 4 -21 4 -21 -4 -3 -15 33 -23 75 -15
75 5 -1 30 -21 58 -45z m-12 -78 c43 -10 65 -27 34 -27 -23 0 -107 31 -114 43
-4 7 0 8 13 2 10 -4 40 -13 67 -18z m261 -64 c22 -45 29 -126 15 -190 -11 -54
-13 -56 -20 -28 -8 32 -19 245 -13 245 2 0 10 -12 18 -27z m768 -65 c-21 -47
-125 -183 -147 -192 -15 -5 -55 3 -55 13 0 3 23 26 51 50 27 24 48 45 45 48
-2 2 -35 -16 -73 -41 -63 -43 -100 -55 -116 -40 -4 4 37 31 90 61 113 64 163
100 163 118 0 12 50 37 58 29 2 -1 -5 -22 -16 -46z m-666 -8 c21 -32 30 -38
40 -29 11 9 14 8 14 -5 0 -10 5 -14 10 -11 17 11 11 -11 -11 -39 -18 -22 -49
-36 -49 -21 0 3 -9 37 -19 75 -11 39 -18 70 -16 70 3 0 17 -18 31 -40z m574 5
c-11 -13 -125 -61 -190 -80 -24 -7 -23 -5 9 29 40 41 89 60 170 65 19 1 21 -1
11 -14z m-210 -19 c0 -5 -55 -39 -252 -157 -87 -52 -158 -99 -158 -105 0 -17
64 -2 135 31 141 64 252 80 346 51 42 -13 42 -14 13 -15 -71 -2 -216 -34 -328
-72 -116 -40 -210 -55 -236 -39 -32 20 -17 51 52 111 65 55 145 106 154 96 2
-2 -27 -25 -65 -51 -72 -49 -98 -73 -88 -82 3 -3 47 24 99 59 109 76 231 149
273 165 32 11 55 15 55 8z m-2925 -149 c8 -13 12 -34 10 -47 -32 -158 -51
-658 -26 -683 23 -23 10 -124 -20 -156 -14 -15 -19 -35 -19 -74 0 -39 -6 -62
-19 -78 l-19 -24 -6 25 c-3 14 -7 41 -10 60 -5 39 -15 87 -22 110 -3 9 -15 -3
-32 -35 -32 -59 -57 -67 -92 -30 -13 14 -29 25 -35 25 -7 0 -30 -20 -52 -44
-42 -47 -96 -79 -151 -91 -41 -8 -49 -27 -28 -60 30 -46 11 -48 -44 -4 -54 44
-73 37 -83 -31 -5 -30 -10 -69 -13 -86 -2 -18 -18 -49 -34 -69 -17 -21 -30
-42 -30 -48 0 -5 23 -30 50 -55 78 -71 67 -79 -41 -31 -45 19 -77 28 -91 23
-19 -6 -20 -11 -14 -68 4 -40 1 -79 -9 -116 -8 -30 -15 -67 -15 -82 0 -19 -8
-31 -27 -40 -21 -10 -28 -20 -28 -43 0 -25 13 -40 90 -102 50 -40 105 -78 123
-84 17 -6 32 -15 32 -20 0 -34 -163 -14 -279 34 -60 25 -81 40 -114 81 -69 88
-91 147 -92 251 0 157 62 321 119 313 13 -2 30 7 44 24 13 15 45 39 72 54 49
27 67 48 50 59 -6 4 -10 37 -10 75 0 102 -50 244 -77 217 -3 -3 -1 -37 4 -74
12 -76 3 -165 -20 -209 -18 -34 -83 -72 -177 -103 -56 -18 -69 -27 -92 -64
-15 -24 -37 -52 -48 -62 -19 -17 -19 -17 -13 83 5 85 2 115 -17 195 l-23 94
29 54 c25 46 40 61 111 103 l82 49 -30 35 c-28 32 -29 35 -14 52 9 10 44 33
78 51 34 18 89 50 121 72 l59 40 44 -23 c47 -25 78 -60 88 -103 9 -34 18 -34
39 -2 12 19 25 25 52 25 47 0 82 -37 119 -125 l28 -66 13 31 c15 35 36 39 56
8 18 -27 35 -18 55 29 11 28 12 42 2 70 -8 26 -9 45 0 72 6 20 16 56 22 81 6
24 17 53 25 64 12 17 11 22 -10 41 -16 15 -27 42 -36 89 -23 122 -3 184 78
240 46 32 61 28 97 -25 15 -21 32 -36 37 -32 6 3 8 28 5 57 -7 76 1 88 69 108
80 22 91 22 109 -5z m173 -108 c16 -52 10 -158 -13 -239 -38 -131 -68 -221
-76 -226 -35 -21 -48 277 -17 376 19 62 67 142 83 137 5 -2 16 -23 23 -48z
m2867 -13 c39 -8 88 -16 110 -16 37 -1 38 -2 15 -11 -38 -16 -212 1 -272 26
-13 5 -18 2 -18 -9 0 -10 -6 -13 -15 -10 -24 9 -18 20 18 32 37 12 65 10 162
-12z m-1200 -40 l30 -24 -70 -22 c-89 -27 -186 -30 -240 -5 l-40 18 90 13 c50
7 108 20 130 28 55 20 66 19 100 -8z m1060 -131 c18 -38 36 -83 39 -100 4 -24
1 -21 -16 15 -12 25 -39 81 -60 125 -27 57 -32 73 -17 55 12 -14 37 -56 54
-95z m160 39 c61 -24 124 -44 140 -44 17 -1 39 -5 50 -10 36 -15 -86 -11 -148
5 -32 8 -81 27 -110 42 -70 37 -67 36 -67 21 0 -21 113 -248 153 -305 20 -29
32 -53 28 -53 -17 0 -120 119 -126 146 -20 87 -40 146 -71 202 -19 34 -34 65
-34 67 0 3 17 -2 38 -11 20 -9 87 -36 147 -60z m-1482 2 c30 -14 87 -34 126
-46 76 -23 85 -40 20 -40 -40 0 -148 49 -199 89 -34 28 -14 26 53 -3z m578
-33 c-12 -20 -14 -14 -5 12 4 9 9 14 11 11 3 -2 0 -13 -6 -23z m-1746 -137
c22 -96 39 -295 30 -353 -6 -42 -16 -57 -88 -130 -93 -96 -118 -104 -138 -46
-6 20 -32 75 -57 122 -40 78 -44 91 -39 137 3 28 24 97 47 153 63 151 76 150
73 -7 -2 -102 -1 -105 13 -74 8 18 21 64 29 103 13 63 51 154 78 187 17 21 33
-8 52 -92z m1465 85 c0 -5 -12 -17 -27 -27 -16 -10 -52 -40 -82 -68 -30 -28
-49 -41 -43 -30 13 24 131 134 144 134 4 0 8 -4 8 -9z m949 -79 c-3 -93 -17
-112 -18 -24 -1 53 3 81 9 77 6 -3 9 -27 9 -53z m-959 18 c0 -30 -194 -220
-225 -220 -14 0 45 71 123 148 79 78 102 94 102 72z m1218 -64 c13 -32 21 -60
19 -63 -7 -7 -76 110 -70 120 11 18 29 -2 51 -57z m-358 37 c1 -5 7 -53 14
-108 l14 -100 -29 -51 c-28 -49 -29 -52 -14 -95 14 -40 21 -46 72 -67 39 -16
59 -20 66 -13 8 8 4 11 -13 11 -34 0 -53 14 -55 39 -1 11 2 18 7 15 4 -3 8 9
8 26 0 43 -31 37 -46 -8 l-10 -33 -12 25 c-10 22 -8 28 24 55 39 34 43 35 97
20 47 -13 52 -24 32 -78 -19 -53 -19 -54 0 -47 11 4 15 -2 15 -20 0 -14 4 -22
10 -19 14 8 13 3 -10 -95 -12 -47 -28 -96 -37 -110 -24 -37 -303 -310 -317
-310 -41 0 -199 141 -179 161 5 5 50 18 99 28 l89 18 -32 17 c-18 9 -49 16
-71 16 -49 0 -144 28 -137 40 14 23 209 5 278 -26 37 -17 38 -17 67 11 17 16
30 32 30 37 0 4 -16 26 -36 48 -25 28 -44 40 -63 40 -39 0 -43 9 -19 43 22 31
82 62 99 51 6 -3 24 6 39 21 28 27 29 28 11 50 -9 13 -23 48 -31 79 -12 51
-12 58 5 76 16 17 16 26 6 78 -10 50 -8 130 5 170 4 13 24 17 24 5z m238 -117
c-3 -26 -5 -23 -14 24 -6 30 -8 59 -5 65 8 15 22 -53 19 -89z m-605 73 c43
-12 111 -68 133 -110 8 -16 14 -44 14 -63 0 -19 5 -38 11 -42 7 -4 8 -9 0 -17
-7 -7 -14 -7 -23 0 -7 6 -42 13 -78 15 -41 4 -86 15 -122 33 -53 25 -57 29
-68 76 -11 44 -10 52 10 84 24 39 51 44 123 24z m507 -35 c7 -20 13 -60 14
-88 l1 -51 -43 -9 c-23 -5 -44 -7 -47 -4 -2 2 7 35 20 74 14 38 25 79 25 92 0
34 17 26 30 -14z m-1282 -24 c26 0 41 -4 37 -10 -3 -5 -21 -10 -39 -10 -49 0
-149 22 -136 30 6 4 30 3 53 -1 23 -4 61 -8 85 -9z m1452 -120 c0 -5 -5 -10
-11 -10 -5 0 -7 5 -4 10 3 6 8 10 11 10 2 0 4 -4 4 -10z m-750 -34 c25 -8 64
-20 88 -26 23 -6 42 -17 42 -24 0 -7 -19 -18 -42 -25 -67 -20 -176 -81 -204
-114 -14 -17 -29 -26 -34 -21 -4 5 -13 51 -19 102 -15 125 -9 137 68 129 31
-4 76 -13 101 -21z m844 12 c26 -11 62 -56 52 -65 -2 -3 -24 13 -48 36 -45 42
-46 49 -4 29z m-1315 -109 c13 -27 21 -53 17 -56 -16 -16 -72 67 -62 93 10 25
22 15 45 -37z m-59 11 c19 -46 49 -80 70 -80 25 0 36 -20 19 -31 -19 -13 -65
-3 -99 21 -32 23 -56 98 -36 112 21 14 34 8 46 -22z m-1315 -259 c55 -24 100
-71 127 -131 40 -90 10 -270 -63 -370 -61 -83 -176 -104 -253 -45 -31 24 -39
26 -47 14 -5 -8 -9 -20 -9 -27 0 -28 -51 -111 -80 -132 -17 -12 -33 -20 -35
-18 -3 2 0 20 6 39 16 55 1 270 -27 375 -37 141 -29 230 26 286 35 35 64 36
94 3 30 -32 39 -31 68 5 22 30 25 30 86 26 34 -3 83 -14 107 -25z m1845 -1 c0
-6 -18 -36 -41 -66 -22 -30 -62 -89 -89 -131 l-49 -76 -17 36 -17 36 43 73
c73 125 85 138 131 138 21 0 39 -5 39 -10z m330 -20 c36 -19 23 -33 -22 -26
-24 4 -59 9 -78 12 -47 7 -18 -11 33 -20 20 -4 37 -13 37 -20 0 -10 -12 -10
-62 0 -35 8 -74 14 -87 14 l-25 0 23 21 c12 12 34 25 49 30 32 10 104 4 132
-11z m-704 -161 c73 -49 75 -51 58 -70 -17 -19 -18 -19 -62 23 -46 45 -88 98
-77 98 3 0 40 -23 81 -51z m1199 -28 c3 -5 -4 -13 -16 -16 -36 -12 -222 -142
-264 -184 -41 -43 -65 -52 -65 -24 0 23 61 78 167 151 116 79 162 98 178 73z
m-1722 -54 c70 -32 115 -73 174 -158 l48 -71 -43 -39 c-55 -48 -136 -79 -208
-79 -61 0 -60 -1 -162 112 -45 51 -85 75 -170 102 -34 12 -50 22 -45 29 40 68
106 116 177 128 70 13 172 2 229 -24z m672 -14 c22 -15 68 -44 103 -64 l62
-36 -19 -25 c-11 -13 -26 -39 -33 -58 l-14 -34 -85 81 c-98 95 -118 125 -99
148 18 22 40 19 85 -12z m338 -69 c3 -4 -1 -18 -10 -33 -10 -14 -18 -27 -19
-29 -5 -10 -34 14 -34 29 0 26 46 50 63 33z m-548 -27 c11 -8 14 -16 8 -20 -6
-4 -18 2 -28 13 -21 23 -8 27 20 7z m522 -51 l103 -31 0 -57 c0 -83 -4 -88
-64 -88 -40 0 -71 9 -132 38 -102 50 -110 59 -89 108 21 51 45 76 64 68 9 -4
62 -21 118 -38z m-1324 0 c65 -30 87 -65 90 -140 2 -38 0 -41 -23 -38 -94 11
-154 2 -224 -33 -39 -19 -85 -35 -101 -35 -32 0 -93 32 -101 53 -6 16 68 156
94 180 58 52 171 58 265 13z m934 -30 l62 -38 -31 -30 -32 -30 -64 66 c-54 56
-62 69 -52 81 11 13 16 13 34 2 12 -7 49 -31 83 -51z m919 3 c6 -24 15 -54 19
-66 5 -16 1 -25 -18 -38 -23 -15 -28 -15 -57 0 -17 9 -28 19 -26 24 3 4 6 25
7 47 2 39 34 87 52 81 6 -2 16 -23 23 -48z m-297 -14 c89 -8 92 -11 64 -69
-17 -36 -23 -39 -145 -61 -37 -7 -38 -6 -38 22 0 64 13 124 25 119 7 -2 49 -8
94 -11z m208 -41 c-3 -20 -9 -39 -12 -42 -3 -4 -33 -9 -66 -12 -59 -6 -60 -5
-54 17 17 70 21 73 81 73 l57 0 -6 -36z m-2762 -14 c12 -37 -18 -103 -67 -150
-27 -25 -48 -51 -48 -58 0 -7 12 -17 28 -23 26 -10 26 -11 8 -24 -22 -17 -88
-28 -136 -23 -32 3 -35 5 -32 33 6 65 6 81 -2 103 -6 19 -3 24 27 37 38 16 67
47 87 95 12 29 15 30 71 30 48 0 59 -3 64 -20z m2147 -68 c11 -28 15 -78 7
-87 -13 -13 -116 34 -158 72 -39 35 -44 44 -35 60 6 10 21 23 34 30 20 10 32
7 82 -18 39 -20 62 -39 70 -57z m183 -36 l90 -22 0 -57 c0 -30 -4 -59 -8 -63
-12 -12 -114 13 -183 45 -61 29 -62 30 -61 68 1 21 -2 48 -6 60 -8 23 -8 23
35 7 24 -9 84 -26 133 -38z m475 44 c0 -5 -12 -17 -27 -27 -16 -9 -39 -27 -53
-40 -14 -13 -34 -30 -45 -38 -19 -13 -19 -14 5 -8 14 3 37 14 52 25 29 20 38
22 38 9 0 -7 -122 -71 -135 -71 -1 0 -3 20 -3 45 -2 39 1 47 20 55 13 5 41 20
63 34 40 26 85 34 85 16z m139 -116 c12 -34 12 -38 -11 -61 l-24 -24 -37 62
c-20 34 -34 65 -31 70 3 5 -7 4 -21 -1 -34 -13 -35 -13 -35 8 0 9 14 29 32 45
l33 27 40 -45 c23 -25 47 -61 54 -81z m-1271 59 l32 -28 -14 -75 c-19 -96 -43
-164 -108 -308 -48 -106 -53 -114 -59 -87 -13 58 -9 155 7 193 33 78 63 169
74 227 23 123 19 119 68 78z m-1019 -58 l21 -40 -26 -3 c-43 -6 -54 4 -48 40
12 72 17 72 53 3z m1960 41 c6 -4 10 -25 9 -46 -1 -38 -4 -40 -47 -55 -25 -8
-68 -16 -95 -17 l-49 -3 2 60 c2 33 4 62 6 65 5 7 161 4 174 -4z m223 -33 c20
-23 48 -79 48 -95 -1 -16 -156 -112 -169 -104 -17 11 -24 85 -9 103 11 15 11
16 -4 10 -12 -4 -21 0 -29 14 -6 11 -9 22 -7 24 8 8 134 65 144 65 6 0 18 -8
26 -17z m-577 -78 c55 -9 110 -19 123 -21 16 -3 22 -10 20 -22 -3 -14 -15 -17
-78 -15 l-75 2 80 -25 c99 -32 109 -40 97 -85 -8 -33 -10 -34 -54 -32 -75 2
-127 32 -189 109 -31 38 -62 80 -69 93 -12 23 -11 23 16 19 16 -3 74 -13 129
-23z m403 -6 c6 -31 -199 -74 -237 -50 -24 15 -3 28 56 34 32 4 76 13 98 21
49 18 79 16 83 -5z m28 -84 c3 -25 4 -48 1 -51 -12 -13 -147 -52 -199 -58 -62
-8 -62 -8 -52 43 6 27 11 31 38 31 17 0 65 18 106 39 41 22 80 40 87 40 7 1
15 -19 19 -44z m-21 -129 c51 -122 119 -400 109 -443 -17 -67 -76 32 -89 148
-8 73 -38 202 -62 260 -8 21 -13 46 -9 54 10 26 36 16 51 -19z m-67 -39 c36
-96 76 -285 66 -312 -4 -11 -45 -39 -48 -33 -1 2 -12 46 -25 98 -13 52 -38
135 -57 184 -19 48 -34 92 -34 96 0 8 25 16 62 19 11 1 23 -15 36 -52z m-1488
-7 c0 -20 -177 -351 -200 -374 -9 -9 -80 38 -80 53 0 4 35 55 78 112 43 57 95
130 115 162 29 45 42 57 62 57 14 0 25 -5 25 -10z m-255 -362 c19 -13 35 -29
35 -36 0 -13 -157 -252 -166 -252 -16 0 -104 44 -102 51 5 14 188 259 193 259
3 0 21 -10 40 -22z m1785 -133 c12 -15 12 -16 -15 -210 -8 -55 -15 -121 -15
-147 0 -53 -12 -61 -49 -30 -21 17 -21 20 -11 142 10 109 32 229 46 252 8 13
31 9 44 -7z m88 -28 c3 -12 -3 -17 -22 -17 -25 0 -35 18 -19 34 12 12 38 2 41
-17z m-31 -131 c-4 -34 -9 -119 -13 -189 l-7 -129 -23 29 c-26 30 -26 65 -3
243 14 112 17 120 35 113 14 -5 15 -17 11 -67z m-2029 12 l51 -23 -98 -145
c-107 -159 -119 -167 -170 -115 -22 22 -23 27 -12 52 18 39 163 253 171 253 4
0 30 -10 58 -22z m-235 -282 c3 -8 21 -23 39 -32 18 -9 35 -18 36 -20 2 -1
-25 -57 -60 -124 l-63 -121 -48 4 c-62 5 -74 17 -58 54 27 62 134 253 141 253
4 0 10 -7 13 -14z m3362 -60 c24 -16 101 -120 129 -173 21 -41 36 -42 58 -3
58 102 46 -91 -12 -200 -9 -18 -14 -19 -27 -9 -8 7 -22 29 -31 48 -11 24 -27
39 -47 45 -80 23 -110 44 -187 125 -88 93 -118 135 -118 166 0 20 5 20 106 18
74 -1 113 -7 129 -17z m-247 -123 c17 -13 32 -30 32 -38 0 -20 -86 -87 -106
-83 -19 3 -64 123 -64 170 l0 28 53 -26 c28 -14 67 -37 85 -51z m-965 -16 c14
-10 19 -36 24 -143 l6 -131 -27 -5 c-14 -3 -28 -2 -30 1 -3 4 -8 70 -12 149
-6 121 -5 142 8 142 8 0 22 -6 31 -13z m80 -39 c14 -11 19 -39 25 -143 5 -71
7 -132 6 -134 -2 -2 -17 10 -34 27 -30 30 -30 31 -30 146 0 64 4 116 8 116 5
0 16 -6 25 -12z m604 -20 c9 -18 26 -60 38 -93 16 -45 26 -61 42 -63 12 -2 26
-15 33 -33 11 -26 10 -32 -8 -49 -18 -17 -19 -24 -11 -62 12 -51 5 -83 -18
-93 -26 -10 -82 58 -116 139 -31 76 -32 92 -12 201 8 44 14 81 15 83 0 1 4 2
10 2 5 0 17 -15 27 -32z m-2939 -45 c43 -7 48 -22 24 -70 -10 -21 -32 -73 -47
-117 l-29 -78 -48 5 c-27 4 -53 9 -59 13 -16 10 -3 64 43 170 37 85 43 95 62
89 12 -4 36 -9 54 -12z m3362 -9 c0 -8 -4 -12 -10 -9 -5 3 -10 10 -10 16 0 5
5 9 10 9 6 0 10 -7 10 -16z m402 -102 c9 -31 26 -82 37 -113 24 -66 39 -213
23 -223 -14 -8 -67 60 -94 121 -18 39 -22 66 -21 138 1 87 16 155 31 141 4 -4
14 -33 24 -64z m-517 8 c3 -5 -3 -10 -14 -10 -12 0 -21 5 -21 10 0 6 6 10 14
10 8 0 18 -4 21 -10z m-3317 -176 c9 -2 11 -11 7 -25 -4 -12 -15 -60 -24 -108
l-17 -86 -57 -3 c-31 -2 -57 1 -57 5 0 31 24 191 31 211 8 21 13 23 56 17 27
-4 54 -8 61 -11z m2447 -174 c9 -15 -6 -60 -21 -60 -9 0 -14 12 -14 35 0 34
20 49 35 25z m62 -54 c-4 -9 -11 -16 -17 -16 -15 0 -24 26 -16 47 6 15 8 15
23 1 9 -9 13 -24 10 -32z m640 -28 c40 -45 38 -48 -21 -48 -62 0 -69 10 -34
47 27 28 30 28 55 1z m487 0 c18 -70 -2 -162 -49 -224 -37 -49 -129 -106 -180
-112 -38 -4 -110 13 -161 39 -26 14 -44 50 -44 89 0 36 8 37 63 8 59 -30 168
-31 217 -3 35 21 41 30 100 158 33 71 44 80 54 45z m-3656 -15 c-3 -25 -8 -29
-56 -36 -60 -10 -82 1 -82 39 0 23 3 24 71 24 l70 0 -3 -27z m-108 -62 c0 -10
-86 -147 -127 -203 -39 -54 -73 -64 -73 -23 0 30 169 245 187 238 7 -3 13 -8
13 -12z m67 -59 c-6 -73 -45 -175 -75 -198 -16 -13 -72 -20 -72 -9 0 4 55 157
91 253 6 15 17 22 35 22 l27 0 -6 -68z m2557 24 c48 -20 74 -53 82 -101 7 -51
-6 -79 -49 -105 -45 -28 -66 -26 -40 3 49 53 51 96 7 137 -52 50 -197 28 -225
-34 -7 -14 -16 -23 -20 -20 -13 8 -11 68 4 87 29 40 176 60 241 33z m-1 -88
c42 -57 -7 -108 -105 -108 -56 1 -77 11 -97 48 -21 40 12 78 80 90 60 11 99 1
122 -30z m-244 -187 l35 -29 -28 -66 c-36 -85 -101 -176 -213 -301 -140 -156
-385 -368 -528 -458 -86 -54 -262 -134 -272 -123 -3 3 19 20 48 38 285 174
384 258 641 546 32 36 63 59 100 74 68 27 81 39 35 31 -21 -3 -37 -3 -37 1 0
4 18 30 39 59 56 75 97 146 111 192 6 22 13 46 15 53 6 18 16 15 54 -17z m505
-725 c58 -62 106 -116 106 -120 0 -14 -57 -4 -142 25 -80 28 -98 31 -157 25
-36 -4 -76 -9 -88 -13 -29 -7 -37 14 -29 71 l7 43 92 40 c51 23 95 41 98 42 4
0 55 -50 113 -113z m-324 -31 c0 -48 -3 -55 -22 -60 -40 -8 -599 -85 -621 -85
-18 1 -19 2 -6 10 9 5 31 12 50 15 19 3 77 19 129 36 132 41 453 137 463 138
4 1 7 -24 7 -54z m562 -206 c54 -55 111 -118 129 -140 l31 -39 -26 0 c-14 0
-116 23 -228 51 -192 48 -209 50 -305 46 -102 -4 -103 -3 -129 25 -15 15 -26
30 -23 32 7 7 412 124 434 125 13 1 54 -34 117 -100z m-267 75 c-21 -9 -250
-73 -252 -70 -1 1 0 11 3 23 5 18 19 23 112 36 109 15 155 19 137 11z m-265
-42 c0 -5 -6 -16 -13 -26 -19 -26 -171 -40 -664 -65 -386 -20 -392 -21 -477
-51 -47 -16 -125 -44 -172 -60 -48 -17 -89 -29 -91 -26 -8 8 344 175 390 185
23 5 202 15 397 21 195 7 396 15 445 20 128 11 185 11 185 2z m952 -151 c59
-37 194 -105 502 -250 60 -28 107 -53 104 -56 -9 -10 -214 58 -288 95 -143 72
-270 149 -362 218 -126 95 -181 145 -92 84 39 -28 100 -68 136 -91z m-963 57
c27 -31 28 -34 11 -40 -46 -17 -752 -199 -813 -209 -124 -21 -62 -21 124 0
336 38 493 51 609 52 142 1 254 -10 277 -26 15 -12 14 -18 -23 -81 -33 -58
-45 -69 -79 -80 -22 -7 -330 -94 -685 -194 -745 -210 -1064 -316 -1303 -436
-162 -81 -529 -285 -523 -291 2 -2 40 8 86 22 45 15 84 24 88 21 3 -3 0 -6 -6
-6 -7 0 -12 -4 -12 -10 0 -5 24 0 53 11 187 74 629 210 1212 374 209 59 485
138 614 176 129 38 236 68 237 66 2 -2 -92 -45 -209 -97 -584 -257 -1055 -477
-1307 -609 -85 -45 -177 -88 -205 -96 -27 -8 -241 -49 -475 -91 -234 -42 -429
-80 -433 -85 -5 -4 12 -19 37 -34 55 -32 57 -46 16 -118 -23 -42 -56 -73 -165
-156 -74 -57 -135 -105 -135 -107 0 -4 98 33 113 43 6 3 23 6 39 5 43 -1 369
160 743 368 624 347 825 446 1685 826 179 79 330 150 335 157 6 8 47 26 91 41
126 42 170 20 109 -52 -24 -28 -55 -48 -102 -67 -101 -39 -1187 -593 -1123
-572 14 5 345 159 897 418 116 54 214 99 217 99 3 0 6 -11 6 -25 0 -41 -125
-124 -322 -216 -173 -81 -933 -459 -1108 -552 -52 -27 -100 -55 -105 -62 -6
-7 -39 -27 -75 -45 -74 -37 -1062 -632 -1057 -636 6 -6 866 360 967 411 52 26
211 119 353 207 159 99 264 158 273 154 13 -5 7 -22 -33 -96 -65 -123 -106
-174 -185 -235 -37 -28 -253 -155 -480 -283 -227 -128 -434 -249 -460 -269
-47 -38 -395 -470 -385 -479 2 -3 155 95 338 217 184 122 344 225 355 228 12
3 147 120 300 260 154 140 294 268 313 285 52 48 28 14 -108 -149 -192 -230
-348 -401 -432 -474 -42 -36 -118 -105 -170 -152 -52 -47 -114 -99 -139 -116
-85 -57 -525 -286 -552 -287 -26 -1 -40 19 -211 309 l-183 310 -66 -3 c-61 -3
-69 -1 -97 25 -17 15 -69 101 -116 191 -72 135 -85 167 -80 192 15 69 151 268
355 520 178 220 623 642 814 771 73 49 894 379 944 379 9 0 80 25 156 55 184
73 1107 371 1159 374 4 1 20 -14 36 -31z m471 -242 c80 -9 197 -17 260 -20 63
-3 123 -8 133 -11 14 -6 17 -20 17 -92 l0 -84 -46 31 c-25 18 -47 30 -50 28
-4 -4 121 -98 131 -98 3 0 23 -11 45 -25 28 -17 40 -32 40 -48 0 -23 -48 -107
-61 -107 -4 0 -12 14 -19 30 -18 43 -64 80 -163 131 l-86 44 -45 -17 c-26 -9
-110 -62 -189 -116 -128 -90 -298 -192 -417 -252 -44 -22 -44 -22 -26 -2 10
12 21 36 25 54 6 31 17 38 164 112 87 43 156 80 154 82 -2 2 -52 -14 -112 -36
-59 -23 -109 -39 -111 -37 -3 2 5 15 16 30 24 30 25 41 5 57 -9 7 -12 17 -8
21 8 8 501 176 572 195 21 6 -68 8 -248 5 -154 -1 -281 0 -281 3 0 4 17 38 38
76 l37 70 40 -5 c22 -3 105 -11 185 -19z m-2400 -190 c0 -17 -133 -137 -255
-231 -445 -341 -725 -606 -1000 -950 -167 -208 -253 -342 -330 -514 -33 -72
-64 -131 -70 -131 -15 0 -95 69 -95 82 0 16 188 345 248 433 115 169 220 290
459 526 254 250 367 347 648 554 209 154 298 213 343 230 48 18 52 18 52 1z
m2739 -264 c25 -26 88 -97 140 -157 113 -130 122 -150 299 -600 150 -384 168
-431 257 -705 56 -168 69 -220 73 -290 4 -79 2 -91 -26 -155 -16 -39 -57 -159
-91 -267 -33 -108 -86 -265 -116 -348 -30 -84 -55 -157 -55 -162 0 -15 -30
-81 -35 -76 -5 5 106 430 141 541 7 22 -146 -134 -202 -206 -21 -27 -51 -94
-82 -180 -26 -76 -52 -139 -58 -140 -5 -1 -42 41 -82 93 -88 115 -88 120 -16
290 58 140 85 171 337 382 97 82 177 154 177 160 0 12 -7 10 -125 -35 -110
-43 -213 -54 -297 -34 -64 16 -68 14 -86 -40 -54 -160 -117 -313 -127 -311 -7
2 -73 82 -145 178 -73 96 -160 203 -194 238 -33 35 -176 152 -316 259 -140
108 -286 226 -325 262 -146 135 -254 324 -230 400 3 12 14 21 24 21 19 0 366
-129 571 -213 74 -30 256 -109 403 -176 147 -67 271 -119 276 -117 4 3 43 -6
86 -19 43 -14 80 -23 82 -21 6 6 -323 189 -537 299 -230 118 -465 227 -869
403 -150 65 -276 125 -279 132 -8 21 39 60 213 180 333 229 884 459 1104 461
64 1 65 1 110 -47z m669 -2327 c12 -25 22 -53 22 -61 0 -18 -146 -324 -154
-324 -3 0 4 24 15 53 87 218 83 205 72 260 -10 50 -1 117 15 117 5 0 18 -20
30 -45z m42 -236 c22 -29 40 -62 40 -73 0 -12 -47 -74 -108 -145 -83 -96 -117
-127 -147 -138 -21 -7 -40 -12 -41 -10 -2 1 44 99 102 216 57 118 107 212 110
209 2 -3 23 -29 44 -59z m-5026 -277 c50 -41 125 -91 172 -115 130 -64 130
-81 -5 -359 -114 -236 -175 -370 -378 -833 -79 -181 -151 -336 -160 -342 -9
-7 -36 -13 -60 -13 -24 0 -64 -5 -89 -11 -40 -10 -49 -9 -72 8 -15 10 -46 47
-69 82 -22 34 -43 59 -46 54 -3 -4 -12 -42 -22 -84 -15 -70 -15 -82 0 -160 8
-46 19 -87 24 -92 5 -5 40 -18 77 -28 37 -10 72 -23 77 -28 6 -6 -4 -26 -26
-53 -19 -24 -58 -79 -87 -123 -61 -94 -189 -239 -231 -261 -26 -13 -48 -13
-205 1 -96 8 -206 15 -245 15 -38 0 -69 4 -69 8 0 10 104 110 215 207 50 43
112 102 138 131 40 45 59 57 117 75 l68 22 -15 24 c-14 21 -14 31 -4 71 7 26
23 94 37 152 19 80 32 112 53 135 97 104 270 443 415 814 69 178 241 660 261
734 11 40 19 55 28 50 7 -4 52 -40 101 -81z m5345 -218 c58 -12 120 -37 258
-107 101 -51 183 -94 183 -97 0 -3 -29 -24 -63 -48 -78 -53 -196 -91 -302 -99
-79 -6 -81 -5 -135 30 -67 43 -96 74 -191 201 -41 54 -83 110 -93 124 l-20 25
143 -7 c79 -4 178 -14 220 -22z m-580 -339 c-4 -137 -19 -368 -33 -513 l-25
-263 53 -108 52 -107 18 42 c23 55 54 72 104 55 20 -7 111 -55 202 -106 91
-52 202 -110 248 -131 45 -20 82 -41 82 -45 0 -5 -24 -19 -52 -31 -204 -87
-277 -135 -340 -227 l-17 -24 -73 21 c-67 19 -111 31 -180 46 -19 4 -43 29
-83 88 -32 46 -70 97 -86 113 -15 17 -42 51 -61 77 -18 26 -46 66 -62 88 -29
40 -30 44 -37 213 -8 179 -37 521 -64 762 -9 77 -19 163 -22 192 l-6 51 44 6
c24 3 87 10 139 16 52 6 120 17 150 24 30 7 56 12 57 12 0 -1 -3 -113 -8 -251z
m1176 -1372 c71 -56 145 -124 145 -135 0 -5 -22 9 -48 31 -71 60 -77 50 -7
-14 68 -61 57 -75 -14 -16 -51 42 -90 65 -98 58 -3 -3 8 -12 24 -20 15 -9 52
-40 81 -70 46 -47 51 -55 35 -61 -13 -5 -27 3 -53 33 -25 29 -49 45 -85 56
-64 19 -71 11 -12 -15 27 -12 62 -40 87 -70 l41 -49 -26 -7 c-22 -5 -34 0 -68
33 -23 22 -55 45 -72 51 -42 15 -188 25 -180 12 3 -6 23 -10 44 -10 24 0 67
-15 121 -42 l83 -42 -37 -32 c-52 -45 -111 -54 -180 -26 -28 11 -82 23 -121
27 -112 11 -175 54 -161 111 4 13 18 32 33 41 42 28 386 191 404 192 9 1 38
-16 64 -36z m-7264 -728 c128 -14 235 -27 237 -29 11 -12 -13 -27 -34 -22 -17
5 -38 -5 -81 -34 -54 -38 -58 -44 -63 -88 -5 -46 -6 -47 -44 -50 -37 -2 -38
-2 -31 25 10 41 25 147 20 151 -2 2 -22 -13 -45 -34 -38 -35 -41 -40 -35 -75
5 -31 3 -39 -14 -48 -44 -24 -50 -16 -44 64 6 77 -3 95 -26 52 -7 -13 -11 -41
-9 -63 3 -33 0 -39 -18 -42 -20 -3 -22 3 -29 67 -4 39 -10 71 -14 71 -16 0
-30 -41 -24 -71 5 -28 -6 -48 -27 -49 -12 0 -31 89 -28 126 3 33 8 42 38 56
19 10 36 18 37 18 1 0 107 -11 234 -25z"/>
<path d="M2321 11059 c-13 -38 -15 -89 -3 -89 13 0 52 45 52 59 0 7 -9 24 -19
37 l-19 24 -11 -31z"/>
<path d="M5181 11394 c-25 -32 -27 -57 -5 -74 22 -19 46 9 48 56 1 46 -15 53
-43 18z m29 -50 c0 -8 -5 -12 -10 -9 -6 4 -8 11 -5 16 9 14 15 11 15 -7z"/>
<path d="M5109 6440 c-80 -4 -163 -13 -185 -20 -21 -7 -156 -78 -299 -158
-241 -134 -303 -171 -265 -158 8 3 242 76 520 161 278 86 512 163 520 171 16
16 -28 17 -291 4z"/>
<path d="M6848 3908 c-129 -128 -162 -166 -197 -231 -23 -44 -41 -81 -39 -83
5 -5 160 99 175 117 33 41 232 349 225 349 -5 0 -78 -69 -164 -152z"/>
<path d="M6665 1650 c9 -16 17 -30 20 -30 2 0 -1 14 -6 30 -6 17 -15 30 -20
30 -5 0 -3 -13 6 -30z"/>
<path d="M6520 10991 c0 -5 7 -37 16 -70 12 -50 13 -74 4 -140 -15 -113 -40
-177 -103 -270 -85 -124 -110 -196 -110 -311 0 -106 17 -163 72 -243 51 -75
56 -66 56 105 0 131 3 163 23 225 26 82 92 179 149 217 49 34 118 36 158 5 38
-30 46 -12 29 63 -21 91 -69 196 -119 263 -83 110 -175 193 -175 156z"/>
</g>
</svg>
